<svg viewBox="-20 -10 40 20" xmlns="http://www.w3.org/2000/svg" version="1.1">
<path d="
M 0.839035,9.98241 L 1.25856,9.9604 L 1.67809,9.92961 L 2.09761,9.89001 L 2.51714,9.84161 L 2.93666,9.78441
 L 3.35619,9.71841 L 3.77571,9.6436 L 4.19522,9.56001 L 4.61475,9.46761 L 5.03427,9.36641 L 5.4538,9.25641
 L 5.87332,9.1376 L 6.29285,9.01001 L 6.71237,8.87361 L 7.1319,8.72841 L 7.55142,8.5744 L 7.97093,8.41161
 L 8.39046,8.24001 L 8.80998,8.0596 L 9.22951,7.87041 L 9.64903,7.67241 L 10.0686,7.46561 L 10.4881,7.25
 L 10.9076,7.0256 L 11.3271,6.7924 L 11.7467,6.55042 L 12.1662,6.29961 L 12.5857,6.04001 L 13.0052,5.77161
 L 13.4247,5.4944 L 13.8443,5.2084 L 14.2638,4.9136 L 14.6833,4.61 L 15.1028,4.29761 L 15.5224,3.97641
 L 15.9419,3.64641 L 16.3614,3.3076 L 16.7809,2.96001 L 17.2005,2.60361 L 17.62,2.2384 L 18.0395,1.86441
 L 18.459,1.48161 L 18.8786,1.09001 L 19.2981,0.689606 L 19.7176,0.280411 L 19.999,-0 L 10,-0
 L 9.98026,-0.627899 L 9.92114,-1.25333 L 9.82286,-1.87381 L 9.68582,-2.48689 L 9.51056,-3.09016 L 9.29776,-3.68124
 L 9.04826,-4.25778 L 8.76306,-4.81754 L 8.44327,-5.35826 L 8.09016,-5.87784 L 7.70512,-6.37424 L 7.28967,-6.84546
 L 6.84546,-7.28967 L 6.37424,-7.70512 L 5.87784,-8.09016 L 5.87558,-8.09169 L 5.99251,-8.05614 L 6.39471,-7.92535
 L 6.79552,-7.78664 L 7.19839,-7.63875 L 7.6006,-7.48267 L 8.00388,-7.3177 L 8.40662,-7.14452 L 8.81067,-6.96231
 L 9.21466,-6.77164 L 9.61867,-6.57248 L 10.0235,-6.36443 L 10.429,-6.14751 L 10.8344,-5.9222 L 11.2401,-5.68817
 L 11.6467,-5.44508 L 12.0525,-5.19395 L 12.4603,-4.93307 L 12.8678,-4.66385 L 13.2753,-4.38603 L 13.6825,-4.09985
 L 14.0917,-3.80377 L 14.5004,-3.49942 L 14.9093,-3.18637 L 15.3181,-2.86479 L 15.7288,-2.53313 L 16.1379,-2.19411
 L 16.5483,-1.84547 L 16.959,-1.48798 L 17.3699,-1.12166 L 17.7809,-0.746658 L 18.1919,-0.362991 L 18.5722,-0
 L 19.999,-0 L 19.7176,-0.280411 L 19.2981,-0.689606 L 18.8786,-1.09001 L 18.459,-1.48161 L 18.0395,-1.86441
 L 17.62,-2.2384 L 17.2005,-2.60361 L 16.7809,-2.96001 L 16.3614,-3.3076 L 15.9419,-3.64641 L 15.5224,-3.97641
 L 15.1028,-4.29761 L 14.6833,-4.61 L 14.2638,-4.9136 L 13.8443,-5.2084 L 13.4247,-5.4944 L 13.0052,-5.77161
 L 12.5857,-6.04001 L 12.1662,-6.29961 L 11.7467,-6.55042 L 11.3271,-6.7924 L 10.9076,-7.0256 L 10.4881,-7.25
 L 10.0686,-7.46561 L 9.64903,-7.67241 L 9.22951,-7.87041 L 8.80998,-8.0596 L 8.39046,-8.24001 L 7.97093,-8.41161
 L 7.55142,-8.5744 L 7.1319,-8.72841 L 6.71237,-8.87361 L 6.29285,-9.01001 L 5.87332,-9.1376 L 5.4538,-9.25641
 L 5.03427,-9.36641 L 4.61475,-9.46761 L 4.19522,-9.56001 L 3.77571,-9.6436 L 3.35619,-9.71841 L 2.93666,-9.78441
 L 2.51714,-9.84161 L 2.09761,-9.89001 L 1.67809,-9.92961 L 1.25856,-9.9604 L 0.839035,-9.98241 L 0.41951,-9.99561
 L 0,-10 L -0.41951,-9.99561 L -0.839035,-9.98241 L -1.25856,-9.9604 L -1.67809,-9.92961 L -2.09761,-9.89001
 L -2.51714,-9.84161 L -2.93666,-9.78441 L -3.35619,-9.71841 L -3.77571,-9.6436 L -4.19522,-9.56001 L -4.61475,-9.46761
 L -5.03427,-9.36641 L -5.4538,-9.25641 L -5.87332,-9.1376 L -6.29285,-9.01001 L -6.71237,-8.87361 L -7.1319,-8.72841
 L -7.55142,-8.5744 L -7.97093,-8.41161 L -8.39046,-8.24001 L -8.80998,-8.0596 L -9.22951,-7.87041 L -9.64903,-7.67241
 L -10.0686,-7.46561 L -10.4881,-7.25 L -10.9076,-7.0256 L -11.3271,-6.7924 L -11.7467,-6.55042 L -12.1662,-6.29961
 L -12.5857,-6.04001 L -13.0052,-5.77161 L -13.4247,-5.4944 L -13.8443,-5.2084 L -14.2638,-4.9136 L -14.6833,-4.61
 L -15.1028,-4.29761 L -15.5224,-3.97641 L -15.9419,-3.64641 L -16.3614,-3.3076 L -16.7809,-2.96001 L -17.2005,-2.60361
 L -17.62,-2.2384 L -18.0395,-1.86441 L -18.459,-1.48161 L -18.8786,-1.09001 L -19.2981,-0.689606 L -19.7176,-0.280411
 L -19.999,-0 L -19.7176,0.280411 L -19.2981,0.689606 L -18.8786,1.09001 L -18.459,1.48161 L -18.0395,1.86441
 L -17.62,2.2384 L -17.2005,2.60361 L -16.7809,2.96001 L -16.3614,3.3076 L -15.9419,3.64641 L -15.5224,3.97641
 L -15.1028,4.29761 L -14.6833,4.61 L -14.2638,4.9136 L -13.8443,5.2084 L -13.4247,5.4944 L -13.0052,5.77161
 L -12.5857,6.04001 L -12.1662,6.29961 L -11.7467,6.55042 L -11.3271,6.7924 L -10.9076,7.0256 L -10.4881,7.25
 L -10.0686,7.46561 L -9.64903,7.67241 L -9.22951,7.87041 L -8.80998,8.0596 L -8.39046,8.24001 L -7.97093,8.41161
 L -7.55142,8.5744 L -7.1319,8.72841 L -6.71237,8.87361 L -6.29285,9.01001 L -5.87332,9.1376 L -5.4538,9.25641
 L -5.03427,9.36641 L -4.61475,9.46761 L -4.19522,9.56001 L -3.77571,9.6436 L -3.35619,9.71841 L -2.93666,9.78441
 L -2.51714,9.84161 L -2.09761,9.89001 L -1.67809,9.92961 L -1.25856,9.9604 L -0.839035,9.98241 L -0.41951,9.99561
 L 0,10 L 0.41951,9.99561 z
M -9.92114,1.25333 L -9.82286,1.87381 L -9.68582,2.48689 L -9.51056,3.09016 L -9.29776,3.68124 L -9.04826,4.25778
 L -8.76306,4.81754 L -8.44327,5.35826 L -8.09016,5.87784 L -7.70512,6.37424 L -7.28967,6.84546 L -6.84546,7.28967
 L -6.37424,7.70512 L -5.87784,8.09016 L -5.87558,8.09169 L -5.99251,8.05614 L -6.39471,7.92535 L -6.79552,7.78664
 L -7.19839,7.63875 L -7.6006,7.48267 L -8.00388,7.3177 L -8.40662,7.14452 L -8.81067,6.96231 L -9.21466,6.77164
 L -9.61867,6.57248 L -10.0235,6.36443 L -10.429,6.14751 L -10.8344,5.9222 L -11.2401,5.68817 L -11.6467,5.44508
 L -12.0525,5.19395 L -12.4603,4.93307 L -12.8678,4.66385 L -13.2753,4.38603 L -13.6825,4.09985 L -14.0917,3.80377
 L -14.5004,3.49942 L -14.9093,3.18637 L -15.3181,2.86479 L -15.7288,2.53313 L -16.1379,2.19411 L -16.5483,1.84547
 L -16.959,1.48798 L -17.3699,1.12166 L -17.7809,0.746658 L -18.1919,0.362991 L -18.5722,-0 L -18.1919,-0.362991
 L -17.7809,-0.746658 L -17.3699,-1.12166 L -16.959,-1.48798 L -16.5483,-1.84547 L -16.1379,-2.19411 L -15.7288,-2.53313
 L -15.3181,-2.86479 L -14.9093,-3.18637 L -14.5004,-3.49942 L -14.0917,-3.80377 L -13.6825,-4.09985 L -13.2753,-4.38603
 L -12.8678,-4.66385 L -12.4603,-4.93307 L -12.0525,-5.19395 L -11.6467,-5.44508 L -11.2401,-5.68817 L -10.8344,-5.9222
 L -10.429,-6.14751 L -10.0235,-6.36443 L -9.61867,-6.57248 L -9.21466,-6.77164 L -8.81067,-6.96231 L -8.40662,-7.14452
 L -8.00388,-7.3177 L -7.6006,-7.48267 L -7.19839,-7.63875 L -6.79552,-7.78664 L -6.39471,-7.92535 L -5.99251,-8.05614
 L -5.87558,-8.09169 L -5.87784,-8.09016 L -6.37424,-7.70512 L -6.84546,-7.28967 L -7.28967,-6.84546 L -7.70512,-6.37424
 L -8.09016,-5.87784 L -8.44327,-5.35826 L -8.76306,-4.81754 L -9.04826,-4.25778 L -9.29776,-3.68124 L -9.51056,-3.09016
 L -9.68582,-2.48689 L -9.82286,-1.87381 L -9.92114,-1.25333 L -9.98026,-0.627899 L -10,-0 L -9.98026,0.627899
 z
M -8.98224,-0.565109 L -8.92903,-1.12799 L -8.84058,-1.68642 L -8.71724,-2.2382 L -8.55949,-2.78114 L -8.36798,-3.31311
 L -8.14343,-3.832 L -7.88675,-4.33577 L -7.59894,-4.82243 L -7.28114,-5.29005 L -6.93462,-5.7368 L -6.56071,-6.16092
 L -6.16092,-6.56071 L -5.7368,-6.93462 L -5.29005,-7.28114 L -4.82243,-7.59894 L -4.33577,-7.88675 L -3.832,-8.14343
 L -3.31311,-8.36798 L -2.78114,-8.55949 L -2.2382,-8.71724 L -1.68642,-8.84058 L -1.12799,-8.92903 L -0.565109,-8.98224
 L -0.00218201,-8.99994 L 0.00218201,-8.99994 L 0.565109,-8.98224 L 1.12799,-8.92903 L 1.68642,-8.84058 L 2.2382,-8.71724
 L 2.78114,-8.55949 L 3.31311,-8.36798 L 3.832,-8.14343 L 4.33577,-7.88675 L 4.82243,-7.59894 L 5.29005,-7.28114
 L 5.7368,-6.93462 L 6.16092,-6.56071 L 6.56071,-6.16092 L 6.93462,-5.7368 L 7.28114,-5.29005 L 7.59894,-4.82243
 L 7.88675,-4.33577 L 8.14343,-3.832 L 8.36798,-3.31311 L 8.55949,-2.78114 L 8.71724,-2.2382 L 8.84058,-1.68642
 L 8.92903,-1.12799 L 8.98224,-0.565109 L 9,-0 L 6.18033,-0 L 6.16814,-0.388062 L 6.13159,-0.774597
 L 6.07086,-1.15807 L 5.98616,-1.53699 L 5.87784,-1.90982 L 5.74632,-2.27513 L 5.59213,-2.63145 L 5.41586,-2.97739
 L 5.21823,-3.31158 L 5,-3.63271 L 4.76202,-3.93948 L 4.50526,-4.23073 L 4.23073,-4.50526 L 3.93948,-4.76202
 L 3.63271,-5 L 3.31158,-5.21823 L 2.97739,-5.41586 L 2.63145,-5.59213 L 2.27513,-5.74632 L 1.90982,-5.87784
 L 1.53699,-5.98616 L 1.15807,-6.07086 L 0.774597,-6.13159 L 0.388062,-6.16814 L 0,-6.18033 L -0.388062,-6.16814
 L -0.774597,-6.13159 L -1.15807,-6.07086 L -1.53699,-5.98616 L -1.90982,-5.87784 L -2.27513,-5.74632 L -2.63145,-5.59213
 L -2.97739,-5.41586 L -3.31158,-5.21823 L -3.63271,-5 L -3.93948,-4.76202 L -4.23073,-4.50526 L -4.50526,-4.23073
 L -4.76202,-3.93948 L -5,-3.63271 L -5.21823,-3.31158 L -5.41586,-2.97739 L -5.59213,-2.63145 L -5.74632,-2.27513
 L -5.87784,-1.90982 L -5.98616,-1.53699 L -6.07086,-1.15807 L -6.13159,-0.774597 L -6.16814,-0.388062 L -6.18033,-0
 L -9,-0 z
M -0.00218201,8.99994 L -0.565109,8.98224 L -1.12799,8.92903 L -1.68642,8.84058 L -2.2382,8.71724 L -2.78114,8.55949
 L -3.31311,8.36798 L -3.832,8.14343 L -4.33577,7.88675 L -4.82243,7.59894 L -5.29005,7.28114 L -5.7368,6.93462
 L -6.16092,6.56071 L -6.56071,6.16092 L -6.93462,5.7368 L -7.28114,5.29005 L -7.59894,4.82243 L -7.88675,4.33577
 L -8.14343,3.832 L -8.36798,3.31311 L -8.55949,2.78114 L -8.71724,2.2382 L -8.84058,1.68642 L -8.92903,1.12799
 L -8.98224,0.565109 L -9,-0 L -6.18033,-0 L -6.16814,0.388062 L -6.13159,0.774597 L -6.07086,1.15807
 L -5.98616,1.53699 L -5.87784,1.90982 L -5.74632,2.27513 L -5.59213,2.63145 L -5.41586,2.97739 L -5.21823,3.31158
 L -5,3.63271 L -4.76202,3.93948 L -4.50526,4.23073 L -4.23073,4.50526 L -3.93948,4.76202 L -3.63271,5
 L -3.31158,5.21823 L -2.97739,5.41586 L -2.63145,5.59213 L -2.27513,5.74632 L -1.90982,5.87784 L -1.53699,5.98616
 L -1.15807,6.07086 L -0.774597,6.13159 L -0.388062,6.16814 L 0,6.18033 L 0.388062,6.16814 L 0.774597,6.13159
 L 1.15807,6.07086 L 1.53699,5.98616 L 1.90982,5.87784 L 2.27513,5.74632 L 2.63145,5.59213 L 2.97739,5.41586
 L 3.31158,5.21823 L 3.63271,5 L 3.93948,4.76202 L 4.23073,4.50526 L 4.50526,4.23073 L 4.76202,3.93948
 L 5,3.63271 L 5.21823,3.31158 L 5.41586,2.97739 L 5.59213,2.63145 L 5.74632,2.27513 L 5.87784,1.90982
 L 5.98616,1.53699 L 6.07086,1.15807 L 6.13159,0.774597 L 6.16814,0.388062 L 6.18033,-0 L 9,-0
 L 8.98224,0.565109 L 8.92903,1.12799 L 8.84058,1.68642 L 8.71724,2.2382 L 8.55949,2.78114 L 8.36798,3.31311
 L 8.14343,3.832 L 7.88675,4.33577 L 7.59894,4.82243 L 7.28114,5.29005 L 6.93462,5.7368 L 6.56071,6.16092
 L 6.16092,6.56071 L 5.7368,6.93462 L 5.29005,7.28114 L 4.82243,7.59894 L 4.33577,7.88675 L 3.832,8.14343
 L 3.31311,8.36798 L 2.78114,8.55949 L 2.2382,8.71724 L 1.68642,8.84058 L 1.12799,8.92903 L 0.565109,8.98224
 L 0.00218201,8.99994 z
M 5.87784,8.09016 L 6.37424,7.70512 L 6.84546,7.28967 L 7.28967,6.84546 L 7.70512,6.37424 L 8.09016,5.87784
 L 8.44327,5.35826 L 8.76306,4.81754 L 9.04826,4.25778 L 9.29776,3.68124 L 9.51056,3.09016 L 9.68582,2.48689
 L 9.82286,1.87381 L 9.92114,1.25333 L 9.98026,0.627899 L 10,-0 L 18.5722,-0 L 18.1919,0.362991
 L 17.7809,0.746658 L 17.3699,1.12166 L 16.959,1.48798 L 16.5483,1.84547 L 16.1379,2.19411 L 15.7288,2.53313
 L 15.3181,2.86479 L 14.9093,3.18637 L 14.5004,3.49942 L 14.0917,3.80377 L 13.6825,4.09985 L 13.2753,4.38603
 L 12.8678,4.66385 L 12.4603,4.93307 L 12.0525,5.19395 L 11.6467,5.44508 L 11.2401,5.68817 L 10.8344,5.9222
 L 10.429,6.14751 L 10.0235,6.36443 L 9.61867,6.57248 L 9.21466,6.77164 L 8.81067,6.96231 L 8.40662,7.14452
 L 8.00388,7.3177 L 7.6006,7.48267 L 7.19839,7.63875 L 6.79552,7.78664 L 6.39471,7.92535 L 5.99251,8.05614
 L 5.87558,8.09169 z
" stroke="black" fill="black" stroke-width="0"/>
</svg>
