<svg viewBox="-50 -50 66 100" xmlns="http://www.w3.org/2000/svg" version="1.1">
<path d="
M 9.36906,49.1143 L 15.4508,47.5528 L 9.61273,45.2413 L 4.11035,42.2164 L -0.969498,38.5257 L -5.54672,34.2273
 L -9.54915,29.3893 L -12.9136,24.0877 L -15.5871,18.4062 L -17.5275,12.4345 L -18.704,6.26665 L -19.0983,-0
 L -18.704,-6.26665 L -17.5275,-12.4345 L -15.5871,-18.4062 L -12.9136,-24.0877 L -9.54915,-29.3893 L -5.54672,-34.2273
 L -0.969498,-38.5257 L 4.11035,-42.2164 L 9.61273,-45.2413 L 15.4508,-47.5528 L 9.36906,-49.1143 L 3.13951,-49.9013
 L -3.13951,-49.9013 L -9.36906,-49.1143 L -15.4508,-47.5528 L -21.289,-45.2413 L -26.7913,-42.2164 L -31.8712,-38.5257
 L -36.4484,-34.2273 L -40.4508,-29.3893 L -43.8153,-24.0877 L -46.4888,-18.4062 L -48.4292,-12.4345 L -49.6057,-6.26665
 L -50,-0 L -49.6057,6.26665 L -48.4292,12.4345 L -46.4888,18.4062 L -43.8153,24.0877 L -40.4508,29.3893
 L -36.4484,34.2273 L -31.8712,38.5257 L -26.7913,42.2164 L -21.289,45.2413 L -15.4508,47.5528 L -9.36906,49.1143
 L -3.13951,49.9013 L 3.13951,49.9013 z"
fill="black"/>
</svg>
