<svg viewBox="-50 -50 100 100" xmlns="http://www.w3.org/2000/svg" version="1.1">
<path d="
M 5,-45 L 4.92403,-45.8682 L 4.69846,-46.7101 L 4.33012,-47.5 L 3.83022,-48.2139 L 3.21393,-48.8302
 L 2.5,-49.3301 L 1.7101,-49.6985 L 0.86824,-49.924 L 0,-50 L -0.86824,-49.924 L -1.7101,-49.6985
 L -2.5,-49.3301 L -3.21393,-48.8302 L -3.83022,-48.2139 L -4.33012,-47.5 L -4.69846,-46.7101 L -4.92403,-45.8682
 L -5,-45 L -5,-29.5625 L 0,-30 L 5,-29.5625 z
M 35.3553,-28.2843 L 35.9155,-28.9519 L 36.3513,-29.7067 L 36.6494,-30.5257 L 36.8008,-31.384 L 36.8008,-32.2556
 L 36.6494,-33.1139 L 36.3513,-33.9329 L 35.9155,-34.6877 L 35.3553,-35.3553 L 34.6877,-35.9155 L 33.9329,-36.3513
 L 33.1139,-36.6494 L 32.2556,-36.8008 L 31.384,-36.8008 L 30.5257,-36.6494 L 29.7067,-36.3513 L 28.9519,-35.9155
 L 28.2843,-35.3553 L 17.2995,-24.3706 L 19.2836,-22.9813 L 22.9813,-19.2836 L 24.3706,-17.2995 z
M -22.9813,-19.2836 L -19.2836,-22.9813 L -17.2995,-24.3706 L -28.2843,-35.3553 L -28.9519,-35.9155 L -29.7067,-36.3513
 L -30.5257,-36.6494 L -31.384,-36.8008 L -32.2556,-36.8008 L -33.1139,-36.6494 L -33.9329,-36.3513 L -34.6877,-35.9155
 L -35.3553,-35.3553 L -35.9155,-34.6877 L -36.3513,-33.9329 L -36.6494,-33.1139 L -36.8008,-32.2556 L -36.8008,-31.384
 L -36.6494,-30.5257 L -36.3513,-29.7067 L -35.9155,-28.9519 L -35.3553,-28.2843 L -24.3706,-17.2995 z
M 4.3412,24.6202 L 8.55049,23.4923 L 12.5,21.6506 L 16.0697,19.1511 L 19.1511,16.0697 L 21.6506,12.5
 L 23.4923,8.55049 L 24.6202,4.3412 L 25,-0 L 24.6202,-4.3412 L 23.4923,-8.55049 L 21.6506,-12.5
 L 19.1511,-16.0697 L 16.0697,-19.1511 L 12.5,-21.6506 L 8.55049,-23.4923 L 4.3412,-24.6202 L 0,-25
 L -4.3412,-24.6202 L -8.55049,-23.4923 L -12.5,-21.6506 L -16.0697,-19.1511 L -19.1511,-16.0697 L -21.6506,-12.5
 L -23.4923,-8.55049 L -24.6202,-4.3412 L -25,-0 L -24.6202,4.3412 L -23.4923,8.55049 L -21.6506,12.5
 L -19.1511,16.0697 L -16.0697,19.1511 L -12.5,21.6506 L -8.55049,23.4923 L -4.3412,24.6202 L 0,25
 z
M 45.8682,4.92403 L 46.7101,4.69846 L 47.5,4.33012 L 48.2139,3.83022 L 48.8302,3.21393 L 49.3301,2.5
 L 49.6985,1.7101 L 49.924,0.86824 L 50,-0 L 49.924,-0.86824 L 49.6985,-1.7101 L 49.3301,-2.5
 L 48.8302,-3.21393 L 48.2139,-3.83022 L 47.5,-4.33012 L 46.7101,-4.69846 L 45.8682,-4.92403 L 45,-5
 L 29.5625,-5 L 30,-0 L 29.5625,5 L 45,5 z
M -30,-0 L -29.5625,-5 L -45,-5 L -45.8682,-4.92403 L -46.7101,-4.69846 L -47.5,-4.33012
 L -48.2139,-3.83022 L -48.8302,-3.21393 L -49.3301,-2.5 L -49.6985,-1.7101 L -49.924,-0.86824 L -50,-0
 L -49.924,0.86824 L -49.6985,1.7101 L -49.3301,2.5 L -48.8302,3.21393 L -48.2139,3.83022 L -47.5,4.33012
 L -46.7101,4.69846 L -45.8682,4.92403 L -45,5 L -29.5625,5 z
M -30.5257,36.6494 L -29.7067,36.3513 L -28.9519,35.9155 L -28.2843,35.3553 L -17.2995,24.3706 L -19.2836,22.9813
 L -22.9813,19.2836 L -24.3706,17.2995 L -35.3553,28.2843 L -35.9155,28.9519 L -36.3513,29.7067 L -36.6494,30.5257
 L -36.8008,31.384 L -36.8008,32.2556 L -36.6494,33.1139 L -36.3513,33.9329 L -35.9155,34.6877 L -35.3553,35.3553
 L -34.6877,35.9155 L -33.9329,36.3513 L -33.1139,36.6494 L -32.2556,36.8008 L -31.384,36.8008 z
M 33.1139,36.6494 L 33.9329,36.3513 L 34.6877,35.9155 L 35.3553,35.3553 L 35.9155,34.6877 L 36.3513,33.9329
 L 36.6494,33.1139 L 36.8008,32.2556 L 36.8008,31.384 L 36.6494,30.5257 L 36.3513,29.7067 L 35.9155,28.9519
 L 35.3553,28.2843 L 24.3706,17.2995 L 22.9813,19.2836 L 19.2836,22.9813 L 17.2995,24.3706 L 28.2843,35.3553
 L 28.9519,35.9155 L 29.7067,36.3513 L 30.5257,36.6494 L 31.384,36.8008 L 32.2556,36.8008 z
M 0.86824,49.924 L 1.7101,49.6985 L 2.5,49.3301 L 3.21393,48.8302 L 3.83022,48.2139 L 4.33012,47.5
 L 4.69846,46.7101 L 4.92403,45.8682 L 5,45 L 5,29.5625 L 0,30 L -5,29.5625
 L -5,45 L -4.92403,45.8682 L -4.69846,46.7101 L -4.33012,47.5 L -3.83022,48.2139 L -3.21393,48.8302
 L -2.5,49.3301 L -1.7101,49.6985 L -0.86824,49.924 L 0,50 z"
 fill="black"/>
</svg>
