<svg viewBox="-50 -50 100 100" xmlns="http://www.w3.org/2000/svg" version="1.1">
<path d="
M 3.96825,-46.0317 L 3.90796,-46.7208 L 3.72893,-47.389 L 3.4366,-48.0159 L 3.03986,-48.5825 L 2.55074,-49.0716
 L 1.98412,-49.4684 L 1.35721,-49.7607 L 0.689072,-49.9397 L 0,-50 L -0.689072,-49.9397 L -1.35721,-49.7607
 L -1.98412,-49.4684 L -2.55074,-49.0716 L -3.03986,-48.5825 L -3.4366,-48.0159 L -3.72893,-47.389 L -3.90796,-46.7208
 L -3.96825,-46.0317 L -3.96825,-24.6528 L 0,-25 L 3.96825,-24.6528 z
M 35.3553,-29.7434 L 35.7999,-30.2733 L 36.1458,-30.8723 L 36.3824,-31.5223 L 36.5025,-32.2035 L 36.5025,-32.8952
 L 36.3824,-33.5764 L 36.1458,-34.2264 L 35.7999,-34.8255 L 35.3553,-35.3553 L 34.8255,-35.7999 L 34.2264,-36.1458
 L 33.5764,-36.3824 L 32.8952,-36.5025 L 32.2035,-36.5025 L 31.5223,-36.3824 L 30.8723,-36.1458 L 30.2733,-35.7999
 L 29.7434,-35.3553 L 14.5813,-20.1933 L 16.0697,-19.1511 L 19.1511,-16.0697 L 20.1933,-14.5813 z
M -19.1511,-16.0697 L -16.0697,-19.1511 L -14.5813,-20.1933 L -29.7434,-35.3553 L -30.2733,-35.7999 L -30.8723,-36.1458
 L -31.5223,-36.3824 L -32.2035,-36.5025 L -32.8952,-36.5025 L -33.5764,-36.3824 L -34.2264,-36.1458 L -34.8255,-35.7999
 L -35.3553,-35.3553 L -35.7999,-34.8255 L -36.1458,-34.2264 L -36.3824,-33.5764 L -36.5025,-32.8952 L -36.5025,-32.2035
 L -36.3824,-31.5223 L -36.1458,-30.8723 L -35.7999,-30.2733 L -35.3553,-29.7434 L -20.1933,-14.5813 z
M 3.47296,19.6962 L 6.84039,18.7938 L 10,17.3205 L 12.8557,15.3209 L 15.3209,12.8557 L 17.3205,10
 L 18.7938,6.84039 L 19.6962,3.47296 L 20,-0 L 19.6962,-3.47296 L 18.7938,-6.84039 L 17.3205,-10
 L 15.3209,-12.8557 L 12.8557,-15.3209 L 10,-17.3205 L 6.84039,-18.7938 L 3.47296,-19.6962 L 0,-20
 L -3.47296,-19.6962 L -6.84039,-18.7938 L -10,-17.3205 L -12.8557,-15.3209 L -15.3209,-12.8557 L -17.3205,-10
 L -18.7938,-6.84039 L -19.6962,-3.47296 L -20,-0 L -19.6962,3.47296 L -18.7938,6.84039 L -17.3205,10
 L -15.3209,12.8557 L -12.8557,15.3209 L -10,17.3205 L -6.84039,18.7938 L -3.47296,19.6962 L 0,20
 z
M 46.7208,3.90796 L 47.389,3.72893 L 48.0159,3.4366 L 48.5825,3.03986 L 49.0716,2.55074 L 49.4684,1.98412
 L 49.7607,1.35721 L 49.9397,0.689072 L 50,-0 L 49.9397,-0.689072 L 49.7607,-1.35721 L 49.4684,-1.98412
 L 49.0716,-2.55074 L 48.5825,-3.03986 L 48.0159,-3.4366 L 47.389,-3.72893 L 46.7208,-3.90796 L 46.0317,-3.96825
 L 24.6528,-3.96825 L 25,-0 L 24.6528,3.96825 L 46.0317,3.96825 z
M -25,-0 L -24.6528,-3.96825 L -46.0317,-3.96825 L -46.7208,-3.90796 L -47.389,-3.72893 L -48.0159,-3.4366
 L -48.5825,-3.03986 L -49.0716,-2.55074 L -49.4684,-1.98412 L -49.7607,-1.35721 L -49.9397,-0.689072 L -50,-0
 L -49.9397,0.689072 L -49.7607,1.35721 L -49.4684,1.98412 L -49.0716,2.55074 L -48.5825,3.03986 L -48.0159,3.4366
 L -47.389,3.72893 L -46.7208,3.90796 L -46.0317,3.96825 L -24.6528,3.96825 z
M -31.5223,36.3824 L -30.8723,36.1458 L -30.2733,35.7999 L -29.7434,35.3553 L -14.5813,20.1933 L -16.0697,19.1511
 L -19.1511,16.0697 L -20.1933,14.5813 L -35.3553,29.7434 L -35.7999,30.2733 L -36.1458,30.8723 L -36.3824,31.5223
 L -36.5025,32.2035 L -36.5025,32.8952 L -36.3824,33.5764 L -36.1458,34.2264 L -35.7999,34.8255 L -35.3553,35.3553
 L -34.8255,35.7999 L -34.2264,36.1458 L -33.5764,36.3824 L -32.8952,36.5025 L -32.2035,36.5025 z
M 32.8952,36.5025 L 33.5764,36.3824 L 34.2264,36.1458 L 34.8255,35.7999 L 35.3553,35.3553 L 35.7999,34.8255
 L 36.1458,34.2264 L 36.3824,33.5764 L 36.5025,32.8952 L 36.5025,32.2035 L 36.3824,31.5223 L 36.1458,30.8723
 L 35.7999,30.2733 L 35.3553,29.7434 L 20.1933,14.5813 L 19.1511,16.0697 L 16.0697,19.1511 L 14.5813,20.1933
 L 29.7434,35.3553 L 30.2733,35.7999 L 30.8723,36.1458 L 31.5223,36.3824 L 32.2035,36.5025 z
M 0.689072,49.9397 L 1.35721,49.7607 L 1.98412,49.4684 L 2.55074,49.0716 L 3.03986,48.5825 L 3.4366,48.0159
 L 3.72893,47.389 L 3.90796,46.7208 L 3.96825,46.0317 L 3.96825,24.6528 L 0,25 L -3.96825,24.6528
 L -3.96825,46.0317 L -3.90796,46.7208 L -3.72893,47.389 L -3.4366,48.0159 L -3.03986,48.5825 L -2.55074,49.0716
 L -1.98412,49.4684 L -1.35721,49.7607 L -0.689072,49.9397 L 0,50 z"
 fill="black"/>
</svg>
